<svg id="visual" viewBox="0 0 900 600" width="900" height="600" xmlns="http://www.w3.org/2000/svg" xmlns:xlink="http://www.w3.org/1999/xlink" version="1.1"><rect x="0" y="0" width="900" height="600" fill="#E4E9F2"></rect><defs><linearGradient id="grad1_0" x1="33.3%" y1="0%" x2="100%" y2="100%"><stop offset="20%" stop-color="#00d1b2" stop-opacity="1"></stop><stop offset="80%" stop-color="#00d1b2" stop-opacity="1"></stop></linearGradient></defs><defs><linearGradient id="grad1_1" x1="33.3%" y1="0%" x2="100%" y2="100%"><stop offset="20%" stop-color="#00d1b2" stop-opacity="1"></stop><stop offset="80%" stop-color="#e4e9f2" stop-opacity="1"></stop></linearGradient></defs><defs><linearGradient id="grad2_0" x1="0%" y1="0%" x2="66.7%" y2="100%"><stop offset="20%" stop-color="#00d1b2" stop-opacity="1"></stop><stop offset="80%" stop-color="#00d1b2" stop-opacity="1"></stop></linearGradient></defs><defs><linearGradient id="grad2_1" x1="0%" y1="0%" x2="66.7%" y2="100%"><stop offset="20%" stop-color="#e4e9f2" stop-opacity="1"></stop><stop offset="80%" stop-color="#00d1b2" stop-opacity="1"></stop></linearGradient></defs><g transform="translate(900, 0)"><path d="M0 405.6C-79.9 400.2 -159.8 394.7 -202.8 351.3C-245.9 307.8 -252.1 226.4 -279.7 161.5C-307.4 96.6 -356.5 48.3 -405.6 0L0 0Z" fill="#88ddf3"></path><path d="M0 202.8C-39.9 200.1 -79.9 197.4 -101.4 175.6C-122.9 153.9 -126 113.2 -139.9 80.8C-153.7 48.3 -178.3 24.2 -202.8 0L0 0Z" fill="#00d1b2"></path></g><g transform="translate(0, 600)"><path d="M0 -405.6C84.8 -403 169.7 -400.5 202.8 -351.3C235.9 -302.1 217.3 -206.3 242.5 -140C267.7 -73.7 336.6 -36.8 405.6 0L0 0Z" fill="#88ddf3"></path><path d="M0 -202.8C42.4 -201.5 84.8 -200.2 101.4 -175.6C118 -151 108.7 -103.2 121.2 -70C133.8 -36.8 168.3 -18.4 202.8 0L0 0Z" fill="#00d1b2"></path></g></svg>