<svg xmlns="http://www.w3.org/2000/svg" viewBox="0 0 178 100" width="800" height="449">
	<style>
		tspan { white-space:pre }
		.shp0 { fill: #394149 } 
	</style>
	<path id="Timetable IO " fill-rule="evenodd" class="shp0" d="M66.76 46C66.83 46 66.88 46.03 66.92 46.08C66.97 46.12 67 46.17 67 46.24L67 48.2C67 48.27 66.97 48.33 66.92 48.38C66.88 48.42 66.83 48.44 66.76 48.44L63.72 48.44C63.65 48.44 63.62 48.47 63.62 48.54L63.62 59.76C63.62 59.83 63.59 59.89 63.54 59.94C63.5 59.98 63.45 60 63.38 60L61.04 60C60.97 60 60.91 59.98 60.86 59.94C60.82 59.89 60.8 59.83 60.8 59.76L60.8 48.54C60.8 48.47 60.77 48.44 60.7 48.44L57.76 48.44C57.69 48.44 57.63 48.42 57.58 48.38C57.54 48.33 57.52 48.27 57.52 48.2L57.52 46.24C57.52 46.17 57.54 46.12 57.58 46.08C57.63 46.03 57.69 46 57.76 46L66.76 46ZM69.82 48.56C69.37 48.56 68.99 48.41 68.7 48.12C68.41 47.81 68.26 47.43 68.26 46.98C68.26 46.51 68.4 46.13 68.68 45.84C68.97 45.55 69.35 45.4 69.82 45.4C70.29 45.4 70.67 45.55 70.96 45.84C71.25 46.13 71.4 46.51 71.4 46.98C71.4 47.43 71.25 47.81 70.94 48.12C70.65 48.41 70.27 48.56 69.82 48.56ZM68.66 60C68.59 60 68.53 59.98 68.48 59.94C68.44 59.89 68.42 59.83 68.42 59.76L68.42 49.96C68.42 49.89 68.44 49.84 68.48 49.8C68.53 49.75 68.59 49.72 68.66 49.72L71 49.72C71.07 49.72 71.12 49.75 71.16 49.8C71.21 49.84 71.24 49.89 71.24 49.96L71.24 59.76C71.24 59.83 71.21 59.89 71.16 59.94C71.12 59.98 71.07 60 71 60L68.66 60ZM83.48 49.56C84.45 49.56 85.19 49.87 85.7 50.5C86.22 51.11 86.48 51.98 86.48 53.1L86.48 59.76C86.48 59.83 86.45 59.89 86.4 59.94C86.36 59.98 86.31 60 86.24 60L83.92 60C83.85 60 83.79 59.98 83.74 59.94C83.7 59.89 83.68 59.83 83.68 59.76L83.68 53.5C83.68 53.03 83.57 52.67 83.34 52.4C83.13 52.12 82.83 51.98 82.46 51.98C82.07 51.98 81.77 52.12 81.54 52.4C81.31 52.67 81.2 53.03 81.2 53.48L81.2 59.76C81.2 59.83 81.17 59.89 81.12 59.94C81.08 59.98 81.03 60 80.96 60L78.64 60C78.57 60 78.51 59.98 78.46 59.94C78.42 59.89 78.4 59.83 78.4 59.76L78.4 53.5C78.4 53.03 78.29 52.67 78.06 52.4C77.83 52.12 77.53 51.98 77.16 51.98C76.77 51.98 76.47 52.12 76.24 52.4C76.01 52.67 75.9 53.03 75.9 53.48L75.9 59.76C75.9 59.83 75.87 59.89 75.82 59.94C75.78 59.98 75.73 60 75.66 60L73.34 60C73.27 60 73.21 59.98 73.16 59.94C73.12 59.89 73.1 59.83 73.1 59.76L73.1 49.96C73.1 49.89 73.12 49.84 73.16 49.8C73.21 49.75 73.27 49.72 73.34 49.72L75.66 49.72C75.73 49.72 75.78 49.75 75.82 49.8C75.87 49.84 75.9 49.89 75.9 49.96L75.9 50.48C75.9 50.52 75.91 50.55 75.94 50.56C75.97 50.57 75.99 50.56 76.02 50.52C76.3 50.19 76.63 49.95 77 49.8C77.37 49.64 77.77 49.56 78.2 49.56C78.8 49.56 79.31 49.69 79.74 49.94C80.18 50.18 80.52 50.53 80.76 51C80.77 51.03 80.79 51.04 80.82 51.04C80.85 51.03 80.87 51 80.9 50.96C81.19 50.47 81.57 50.11 82.02 49.9C82.47 49.67 82.96 49.56 83.48 49.56ZM96.44 53.3C96.48 53.74 96.5 54.23 96.5 54.76L96.48 55.54C96.48 55.7 96.4 55.78 96.24 55.78L90.94 55.78C90.87 55.78 90.84 55.81 90.84 55.88C90.87 56.19 90.89 56.41 90.92 56.56C90.99 56.93 91.15 57.23 91.4 57.44C91.67 57.65 91.99 57.76 92.38 57.76C93.03 57.75 93.49 57.45 93.74 56.86C93.81 56.73 93.91 56.67 94.04 56.7L96.16 57.12C96.32 57.16 96.37 57.26 96.32 57.42C96.03 58.3 95.54 58.98 94.86 59.46C94.19 59.93 93.37 60.16 92.38 60.16C91.19 60.16 90.25 59.89 89.54 59.36C88.85 58.81 88.39 58.03 88.18 57.02C88.06 56.47 88 55.64 88 54.52C88 53.88 88.04 53.34 88.12 52.9C88.27 51.89 88.71 51.08 89.44 50.48C90.17 49.87 91.1 49.56 92.22 49.56C93.43 49.56 94.42 49.91 95.18 50.6C95.94 51.28 96.36 52.18 96.44 53.3ZM92.24 51.98C91.88 51.98 91.58 52.09 91.34 52.3C91.11 52.51 90.97 52.81 90.9 53.18C90.86 53.42 90.84 53.67 90.84 53.94C90.84 54.01 90.87 54.04 90.94 54.04L93.54 54.04C93.61 54.04 93.64 54.01 93.64 53.94C93.64 53.67 93.62 53.42 93.58 53.18C93.53 52.82 93.38 52.53 93.14 52.32C92.9 52.09 92.6 51.98 92.24 51.98ZM103.18 51.6C103.18 51.67 103.15 51.73 103.1 51.78C103.06 51.82 103.01 51.84 102.94 51.84L101.4 51.84C101.33 51.84 101.3 51.87 101.3 51.94L101.3 56.44C101.3 56.85 101.38 57.15 101.54 57.34C101.71 57.51 101.97 57.59 102.32 57.58L102.72 57.58C102.79 57.58 102.84 57.61 102.88 57.66C102.93 57.7 102.96 57.75 102.96 57.82L102.96 59.76C102.96 59.92 102.88 60 102.72 60C102.49 60.01 102.16 60.02 101.72 60.02C100.67 60.02 99.88 59.85 99.36 59.5C98.85 59.15 98.6 58.5 98.6 57.54L98.6 51.94C98.6 51.87 98.57 51.84 98.5 51.84L97.58 51.84C97.51 51.84 97.45 51.82 97.4 51.78C97.36 51.73 97.34 51.67 97.34 51.6L97.34 49.96C97.34 49.89 97.36 49.84 97.4 49.8C97.45 49.75 97.51 49.72 97.58 49.72L98.5 49.72C98.57 49.72 98.6 49.69 98.6 49.62L98.6 47.32C98.6 47.25 98.62 47.2 98.66 47.16C98.71 47.11 98.77 47.08 98.84 47.08L101.06 47.08C101.13 47.08 101.18 47.11 101.22 47.16C101.27 47.2 101.3 47.25 101.3 47.32L101.3 49.62C101.3 49.69 101.33 49.72 101.4 49.72L102.94 49.72C103.01 49.72 103.06 49.75 103.1 49.8C103.15 49.84 103.18 49.89 103.18 49.96L103.18 51.6ZM108.5 49.56C109.3 49.56 110.01 49.71 110.64 50C111.27 50.28 111.75 50.68 112.1 51.2C112.46 51.71 112.64 52.29 112.64 52.94L112.64 59.76C112.64 59.83 112.61 59.89 112.56 59.94C112.52 59.98 112.47 60 112.4 60L110.06 60C109.99 60 109.93 59.98 109.88 59.94C109.84 59.89 109.82 59.83 109.82 59.76L109.82 59.2C109.82 59.16 109.81 59.13 109.78 59.12C109.75 59.11 109.73 59.12 109.7 59.16C109.19 59.83 108.41 60.16 107.34 60.16C106.43 60.16 105.67 59.93 105.06 59.46C104.46 58.99 104.16 58.21 104.16 57.12C104.16 54.95 105.52 53.86 108.24 53.86L109.72 53.86C109.79 53.86 109.82 53.83 109.82 53.76L109.82 53.3C109.82 52.9 109.7 52.58 109.46 52.34C109.23 52.1 108.92 51.98 108.52 51.98C108.2 51.98 107.93 52.05 107.72 52.2C107.51 52.35 107.37 52.55 107.32 52.8C107.28 52.93 107.19 53 107.04 53L104.62 52.86C104.55 52.86 104.49 52.84 104.44 52.8C104.4 52.76 104.39 52.71 104.4 52.64C104.48 51.72 104.89 50.98 105.64 50.42C106.4 49.85 107.35 49.56 108.5 49.56ZM108.18 58.02C108.63 58.02 109.02 57.89 109.34 57.64C109.66 57.39 109.82 57.05 109.82 56.64L109.82 55.8C109.82 55.73 109.79 55.7 109.72 55.7L108.6 55.7C108.11 55.7 107.72 55.81 107.44 56.02C107.16 56.23 107.02 56.54 107.02 56.94C107.02 57.29 107.13 57.55 107.34 57.74C107.55 57.93 107.83 58.02 108.18 58.02ZM122.54 52.66C122.66 53.25 122.72 53.95 122.72 54.76C122.72 55.65 122.65 56.39 122.52 56.98C122.08 59.1 121.04 60.16 119.4 60.16C118.48 60.16 117.77 59.87 117.28 59.3C117.25 59.26 117.23 59.25 117.2 59.26C117.17 59.27 117.16 59.3 117.16 59.34L117.16 59.76C117.16 59.83 117.13 59.89 117.08 59.94C117.04 59.98 116.99 60 116.92 60L114.58 60C114.51 60 114.45 59.98 114.4 59.94C114.36 59.89 114.34 59.83 114.34 59.76L114.34 46.24C114.34 46.17 114.36 46.12 114.4 46.08C114.45 46.03 114.51 46 114.58 46L116.92 46C116.99 46 117.04 46.03 117.08 46.08C117.13 46.12 117.16 46.17 117.16 46.24L117.16 50.34C117.16 50.38 117.17 50.41 117.2 50.42C117.23 50.43 117.25 50.42 117.28 50.38C117.53 50.09 117.83 49.88 118.16 49.76C118.51 49.63 118.91 49.56 119.36 49.56C120.23 49.56 120.93 49.83 121.46 50.36C121.99 50.89 122.35 51.66 122.54 52.66ZM119.74 56.56C119.85 56.12 119.9 55.55 119.9 54.84C119.9 54.04 119.84 53.45 119.72 53.06C119.51 52.34 119.1 51.98 118.5 51.98C117.89 51.98 117.49 52.35 117.32 53.08C117.21 53.55 117.16 54.13 117.16 54.84C117.16 55.61 117.21 56.19 117.32 56.58C117.49 57.35 117.89 57.74 118.5 57.74C119.15 57.74 119.57 57.35 119.74 56.56ZM124.62 60C124.55 60 124.49 59.98 124.44 59.94C124.4 59.89 124.38 59.83 124.38 59.76L124.38 46.24C124.38 46.17 124.4 46.12 124.44 46.08C124.49 46.03 124.55 46 124.62 46L126.96 46C127.03 46 127.08 46.03 127.12 46.08C127.17 46.12 127.2 46.17 127.2 46.24L127.2 59.76C127.2 59.83 127.17 59.89 127.12 59.94C127.08 59.98 127.03 60 126.96 60L124.62 60ZM137.22 53.3C137.26 53.74 137.28 54.23 137.28 54.76L137.26 55.54C137.26 55.7 137.18 55.78 137.02 55.78L131.72 55.78C131.65 55.78 131.62 55.81 131.62 55.88C131.65 56.19 131.67 56.41 131.7 56.56C131.77 56.93 131.93 57.23 132.18 57.44C132.45 57.65 132.77 57.76 133.16 57.76C133.81 57.75 134.27 57.45 134.52 56.86C134.59 56.73 134.69 56.67 134.82 56.7L136.94 57.12C137.1 57.16 137.15 57.26 137.1 57.42C136.81 58.3 136.32 58.98 135.64 59.46C134.97 59.93 134.15 60.16 133.16 60.16C131.97 60.16 131.03 59.89 130.32 59.36C129.63 58.81 129.17 58.03 128.96 57.02C128.84 56.47 128.78 55.64 128.78 54.52C128.78 53.88 128.82 53.34 128.9 52.9C129.05 51.89 129.49 51.08 130.22 50.48C130.95 49.87 131.88 49.56 133 49.56C134.21 49.56 135.2 49.91 135.96 50.6C136.72 51.28 137.14 52.18 137.22 53.3ZM133.02 51.98C132.66 51.98 132.36 52.09 132.12 52.3C131.89 52.51 131.75 52.81 131.68 53.18C131.64 53.42 131.62 53.67 131.62 53.94C131.62 54.01 131.65 54.04 131.72 54.04L134.32 54.04C134.39 54.04 134.42 54.01 134.42 53.94C134.42 53.67 134.4 53.42 134.36 53.18C134.31 52.82 134.16 52.53 133.92 52.32C133.68 52.09 133.38 51.98 133.02 51.98ZM143.2 60C143.13 60 143.07 59.98 143.02 59.94C142.98 59.89 142.96 59.83 142.96 59.76L142.96 46.24C142.96 46.17 142.98 46.12 143.02 46.08C143.07 46.03 143.13 46 143.2 46L145.54 46C145.61 46 145.66 46.03 145.7 46.08C145.75 46.12 145.78 46.17 145.78 46.24L145.78 59.76C145.78 59.83 145.75 59.89 145.7 59.94C145.66 59.98 145.61 60 145.54 60L143.2 60ZM152.28 60.18C151.36 60.18 150.55 59.99 149.84 59.62C149.15 59.25 148.61 58.72 148.22 58.04C147.83 57.36 147.64 56.57 147.64 55.66L147.64 50.34C147.64 49.45 147.83 48.66 148.22 47.98C148.61 47.3 149.15 46.77 149.84 46.4C150.55 46.03 151.36 45.84 152.28 45.84C153.2 45.84 154.01 46.03 154.72 46.4C155.43 46.77 155.97 47.3 156.36 47.98C156.75 48.66 156.94 49.45 156.94 50.34L156.94 55.66C156.94 56.57 156.75 57.36 156.36 58.04C155.97 58.72 155.43 59.25 154.72 59.62C154.01 59.99 153.2 60.18 152.28 60.18ZM152.28 57.76C152.84 57.76 153.29 57.58 153.62 57.22C153.95 56.85 154.12 56.37 154.12 55.78L154.12 50.26C154.12 49.66 153.95 49.18 153.62 48.82C153.29 48.45 152.84 48.26 152.28 48.26C151.73 48.26 151.29 48.45 150.96 48.82C150.63 49.18 150.46 49.66 150.46 50.26L150.46 55.78C150.46 56.37 150.63 56.85 150.96 57.22C151.29 57.58 151.73 57.76 152.28 57.76Z" />
	<path id="Layer" fill-rule="evenodd" class="shp0" d="M55.16 45.11C55.16 45.8 55.09 46.49 54.94 47.17C54.8 47.84 54.58 48.5 54.3 49.14C54.02 49.77 53.67 50.37 53.26 50.93C52.85 51.48 52.39 52 51.87 52.46L51.87 64.77L25.52 64.77L25.52 38.43L38 38.43C39.35 36.96 41.1 35.94 43.04 35.49C44.98 35.04 47.01 35.18 48.86 35.9C50.72 36.62 52.31 37.89 53.44 39.53C54.56 41.18 55.16 43.12 55.16 45.11ZM50.09 45.11C50.09 44.48 49.96 43.85 49.72 43.27C49.48 42.68 49.12 42.15 48.67 41.71C48.23 41.26 47.7 40.91 47.11 40.67C46.53 40.42 45.9 40.3 45.27 40.3C43.32 40.3 41.56 41.48 40.82 43.28C40.07 45.08 40.48 47.15 41.87 48.53C43.25 49.91 45.32 50.32 47.12 49.57C48.92 48.82 50.09 47.06 50.09 45.11ZM46.8 54.87C46.67 54.89 46.55 54.91 46.42 54.93C46.29 54.94 46.17 54.95 46.04 54.97C45.91 54.98 45.78 54.98 45.65 54.99C45.53 55 45.4 55 45.27 55C43.97 55 42.69 54.74 41.49 54.24C40.29 53.75 39.2 53.02 38.28 52.1C37.36 51.18 36.63 50.09 36.14 48.89C35.64 47.69 35.38 46.41 35.38 45.11C35.38 44.98 35.39 44.84 35.39 44.71C35.4 44.57 35.41 44.44 35.42 44.3C35.43 44.17 35.45 44.03 35.47 43.9C35.49 43.77 35.51 43.63 35.53 43.5L30.59 43.5L30.59 59.7L46.8 59.7L46.8 54.87Z" />
</svg>